<svg width="22" height="22" viewBox="0 0 22 22" fill="none" xmlns="http://www.w3.org/2000/svg">
<path d="M10.9634 20.1163H2.74082C2.2365 20.1163 1.82723 19.7069 1.82723 19.2027V2.75759C1.82723 2.25327 2.23655 1.844 2.74082 1.844H10.9634C11.4686 1.844 11.877 1.43563 11.877 0.930403C11.877 0.425181 11.4686 0.0167236 10.9634 0.0167236H2.74082C1.22971 0.0167236 0 1.24648 0 2.75759V19.2026C0 20.7137 1.22971 21.9434 2.74082 21.9434H10.9634C11.4686 21.9434 11.877 21.5351 11.877 21.0298C11.877 20.5246 11.4686 20.1163 10.9634 20.1163Z" fill="white"/>
<path d="M21.7277 10.3295L16.1729 4.84782C15.8148 4.49334 15.2356 4.49793 14.8811 4.85698C14.5266 5.21602 14.5302 5.79433 14.8902 6.14882L18.8598 10.0664H8.22267C7.71745 10.0664 7.30908 10.4747 7.30908 10.98C7.30908 11.4852 7.71745 11.8936 8.22267 11.8936H18.8598L14.8902 15.8112C14.5303 16.1657 14.5275 16.744 14.8811 17.103C15.0601 17.2839 15.2958 17.3753 15.5316 17.3753C15.7636 17.3753 15.9957 17.2876 16.1729 17.1121L21.7277 11.6304C21.9013 11.4587 21.9999 11.2248 21.9999 10.9799C21.9999 10.7352 21.9022 10.5022 21.7277 10.3295Z" fill="white"/>
</svg>
