<svg width="44" height="44" viewBox="0 0 44 44" fill="none" xmlns="http://www.w3.org/2000/svg">
<path d="M24.3846 21.4379L19.4786 26.3439C18.9753 26.8471 18.1594 26.8472 17.656 26.3439C17.1527 25.8407 17.1527 25.0246 17.656 24.5212L22.562 19.6152C21.3694 18.1722 20.5221 16.538 20.021 14.823L1.40153 34.5561C-0.511419 36.598 -0.460038 39.7471 1.51829 41.7254L2.27448 42.4816C4.2529 44.4602 7.40225 44.511 9.44708 42.5952L29.1769 23.9788C27.4619 23.4777 25.8277 22.6305 24.3846 21.4379Z" fill="#0E8F94"/>
<path d="M24.3784 4.17303L39.8279 19.6216C37.9522 21.1081 35.5808 21.9956 33.0023 21.9956C26.9285 21.9956 22.0044 17.0715 22.0044 10.9977C22.0044 8.41934 22.892 6.04869 24.3784 4.17303Z" fill="#0E8F94"/>
<path d="M44 10.9979C44 13.5644 43.1201 15.9255 41.6474 17.7968L26.2031 2.35252C28.0745 0.879831 30.4356 0 33.0021 0C39.0758 0 44 4.92413 44 10.9979Z" fill="#0E8F94"/>
</svg>
