<svg width="48" height="48" viewBox="0 0 48 48" fill="none" xmlns="http://www.w3.org/2000/svg">
<path d="M39.6351 12.3428C39.6238 12.3541 25.5403 26.4377 25.5289 26.449L21.5508 22.4728L35.6579 8.36658C35.6673 8.37595 39.64 12.3522 39.6351 12.3428Z" fill="#0E8F94"/>
<path d="M46.1496 0.0729323L40.1843 2.06105C39.9771 2.13042 39.7887 2.24665 39.635 2.40131L36.6523 5.38396C37.252 5.98358 42.3539 11.0855 43.2316 11.9632L47.0391 10.694C47.6128 10.5028 47.9999 9.96572 47.9999 9.3602V1.40678C47.9999 0.447872 47.0588 -0.229832 46.1496 0.0729323Z" fill="#0E8F94"/>
<path d="M37.4585 22.4728C36.9102 21.9235 36.0197 21.9235 35.4704 22.4728C33.4513 24.4919 32.2881 24.6015 31.6076 24.3484L26.5228 29.4317C25.9739 29.9804 25.084 29.9807 24.535 29.432C23.1214 28.0191 20.5338 25.433 18.5681 23.468C18.0192 22.9193 18.0188 22.0285 18.5679 21.4794L23.6523 16.395C23.3992 15.7155 23.507 14.5522 25.5279 12.5303C26.0772 11.9811 26.0772 11.0915 25.5279 10.5422C24.6056 9.61987 23.148 9.44365 21.4223 10.0454C17.4489 11.4318 15.6586 14.7734 14.1991 18.0738C12.2579 22.4662 11.6533 22.8346 9.11398 23.7092C7.31708 24.3269 4.85654 25.1742 2.17009 27.9385C-0.804117 30.9989 -0.70757 36.0053 2.38475 39.0976L8.90308 45.616C11.9982 48.7111 17.0046 48.8029 20.0632 45.8306C22.8274 43.1442 23.6738 40.6836 24.2925 38.8867C25.0864 36.579 25.2786 35.8572 29.9269 33.8016C32.2581 32.7705 36.389 31.0674 37.9553 26.5793C38.558 24.8537 38.3809 23.3952 37.4585 22.4728ZM15.5864 42.3568C15.0371 42.9061 14.1466 42.9061 13.5973 42.3568C13.049 41.8075 13.049 40.918 13.5973 40.3687C14.1466 39.8194 15.0371 39.8194 15.5864 40.3687C16.1357 40.918 16.1357 41.8075 15.5864 42.3568ZM17.5745 36.3915C17.029 36.937 16.1375 36.9427 15.5864 36.3915L11.6092 32.4143C11.0599 31.866 11.0599 30.9755 11.6092 30.4262C12.1585 29.8769 13.049 29.8769 13.5973 30.4262L17.5745 34.4034C18.1238 34.9527 18.1238 35.8422 17.5745 36.3915ZM21.5517 32.4143C21.0024 32.9636 20.1128 32.9646 19.5626 32.4143L15.5864 28.4381C15.0371 27.8888 15.0371 26.9983 15.5864 26.45C16.1357 25.9007 17.0252 25.9007 17.5745 26.45L21.5517 30.4262C22.101 30.9755 22.101 31.866 21.5517 32.4143Z" fill="#0E8F94"/>
<path d="M6.40047 13.9126C7.09635 14.2606 7.94025 13.977 8.28688 13.2839L11.0989 7.65977C11.5697 6.71932 10.8711 5.62497 9.84129 5.62497H6.49214L8.28679 2.03567C8.63408 1.34109 8.3525 0.496632 7.65801 0.14925C6.96353 -0.198038 6.11889 0.0834483 5.7716 0.778025L2.95955 6.40212C2.49931 7.32148 3.1653 8.4447 4.22535 8.43692H7.56625L5.7716 12.0262C5.4244 12.7208 5.70589 13.5653 6.40047 13.9126Z" fill="#0E8F94"/>
<path d="M40.3328 36.8934L34.7087 39.7054C34.0141 40.0527 33.7326 40.8973 34.0799 41.5918C34.4273 42.2865 35.2719 42.5679 35.9663 42.2206L39.5556 40.426V43.775C39.5556 44.8053 40.6435 45.5034 41.5904 45.0327L47.2145 42.2206C47.9091 41.8733 48.1906 41.0288 47.8433 40.3342C47.496 39.6396 46.6515 39.3579 45.9569 39.7054L42.3676 41.5001V38.151C42.3676 37.1013 41.2553 36.4313 40.3328 36.8934Z" fill="#0E8F94"/>
</svg>
