<svg width="48" height="48" viewBox="0 0 48 48" fill="none" xmlns="http://www.w3.org/2000/svg">
<path d="M22.671 17.3832L8.37406 31.6792C6.18577 33.8676 6.17424 37.4308 8.37406 39.6307C10.6158 41.8724 14.1732 41.7812 16.3256 39.6307L30.6216 25.3337L22.671 17.3832ZM20.3004 29.6918C19.7522 30.2409 18.862 30.2409 18.313 29.6918C17.7639 29.1427 17.7639 28.2525 18.313 27.7044L20.3004 25.716C20.8494 25.1679 21.7396 25.1679 22.2887 25.716C22.8369 26.2651 22.8369 27.1553 22.2887 27.7044L20.3004 29.6918Z" fill="#0E8F94"/>
<path d="M44.0532 17.7243L30.281 3.95117C29.1894 5.40823 28.555 7.10234 28.3779 8.83488L39.1695 19.6265C40.9479 19.4451 42.6326 18.7889 44.0532 17.7243Z" fill="#0E8F94"/>
<path d="M45.1183 2.88685C41.6195 -0.611956 36.1192 -0.919296 32.269 1.96389L46.0413 15.737C48.9244 11.8869 48.6171 6.38565 45.1183 2.88685Z" fill="#0E8F94"/>
<path d="M34.5977 25.334C35.1466 25.8829 36.0365 25.8828 36.5853 25.334L37.7497 24.1697C38.2986 23.6208 38.2986 22.7309 37.7497 22.182L25.8235 10.2557C25.2747 9.70693 24.3843 9.70721 23.8358 10.2557L22.6714 11.4202C22.1225 11.9691 22.1225 12.8589 22.6714 13.4078L34.5977 25.334Z" fill="#0E8F94"/>
<path d="M12.8694 8.43853H16.2098L14.4154 12.0264C14.0688 12.7207 14.3499 13.5649 15.0442 13.9126C15.7394 14.2602 16.5837 13.9772 16.9304 13.2838L19.7414 7.66175C20.2137 6.7163 19.5081 5.6275 18.484 5.6275H15.136L16.9304 2.03968C17.2771 1.34535 16.996 0.501101 16.3017 0.153469C15.6073 -0.193225 14.7631 0.0878786 14.4154 0.782205L11.6044 6.40428C11.1453 7.32349 11.8077 8.44509 12.8694 8.43853Z" fill="#0E8F94"/>
<path d="M47.8519 31.7035C47.5043 31.0092 46.66 30.7281 45.9657 31.0748L42.3779 32.8692V29.5212C42.3779 28.4774 41.2703 27.8009 40.3436 28.2638L34.7215 31.0748C34.0272 31.4224 33.7461 32.2667 34.0928 32.961C34.4404 33.6553 35.2847 33.9365 35.979 33.5898L39.5668 31.7954V35.1433C39.5668 36.1731 40.6575 36.8731 41.6011 36.4008L47.2232 33.5898C47.9175 33.2421 48.1986 32.3979 47.8519 31.7035Z" fill="#0E8F94"/>
<path d="M7.46268 42.5308L2.42437 47.5691C1.12754 48.865 -0.895468 46.9132 0.436027 45.5808L5.47622 40.5415C6.02015 41.3079 6.70164 41.9858 7.46268 42.5308Z" fill="#0E8F94"/>
</svg>
