<svg width="48" height="48" viewBox="0 0 48 48" fill="none" xmlns="http://www.w3.org/2000/svg">
<path d="M29.4353 22.5853H29.4372L38.6483 13.3488L38.653 13.3432L34.6592 9.34937L34.6545 9.35499L25.4434 18.5915L29.4353 22.5853Z" fill="#0E8F94"/>
<path d="M33.8218 22.1681L30.4327 25.5684C29.8833 26.1188 28.9917 26.1197 28.4423 25.5694L22.4609 19.5861C21.9125 19.0377 21.9115 18.148 22.459 17.5995L25.851 14.1963L25.8501 14.1954C25.4263 13.7716 24.7813 13.6629 24.2422 13.9244L2.37731 24.5269C-1.12621 26.2256 -0.652757 31.3736 3.11421 32.3945L12.9413 35.059L15.6058 44.8861C16.6258 48.6483 21.7728 49.1312 23.4734 45.623L34.0759 23.7581C34.3337 23.2266 34.2315 22.5918 33.8218 22.1681ZM21.049 32.9177C20.4996 33.4671 19.609 33.4671 19.0596 32.9177L15.0826 28.9407C14.5332 28.3913 14.5332 27.5007 15.0826 26.9513C15.6311 26.4028 16.5217 26.4028 17.0711 26.9513L21.049 30.9292C21.5975 31.4786 21.5975 32.3683 21.049 32.9177ZM25.026 28.9407C24.4766 29.4892 23.5859 29.4892 23.0375 28.9407L19.0596 24.9628C18.5111 24.4144 18.5111 23.5237 19.0596 22.9743C19.609 22.4249 20.4996 22.4249 21.049 22.9743L25.026 26.9513C25.5754 27.5007 25.5754 28.3913 25.026 28.9407Z" fill="#0E8F94"/>
<path d="M13.124 8.43808H13.1452C13.1471 8.43808 13.149 8.43836 13.1509 8.43836C13.154 8.43836 13.1571 8.43808 13.1602 8.43798H16.5017L14.7067 12.0279C14.3593 12.7226 14.641 13.5673 15.3356 13.9147C16.0316 14.2627 16.8756 13.9792 17.2223 13.2858L20.0349 7.66068C20.504 6.72232 19.8155 5.62101 18.7708 5.62664C18.7634 5.62654 18.7564 5.62551 18.7492 5.62551H15.4275L17.2224 2.03555C17.5698 1.34085 17.2882 0.496235 16.5935 0.148789C15.8989 -0.198563 15.0541 0.0829752 14.7068 0.777679L12.0031 6.18512C11.3069 7.10539 11.9606 8.43808 13.124 8.43808Z" fill="#0E8F94"/>
<path d="M45.965 30.7778L42.375 32.5728V29.2232C42.375 28.1798 41.2744 27.4979 40.3398 27.9653L34.7147 30.7778C34.02 31.1252 33.7384 31.9699 34.0858 32.6646C34.4332 33.3593 35.2779 33.6408 35.9726 33.2935L39.5625 31.4985V34.8482C39.5625 35.8916 40.6631 36.5734 41.5977 36.1061L47.2228 33.2935C47.9175 32.9461 48.1991 32.1014 47.8517 31.4067C47.5043 30.7121 46.6595 30.4304 45.965 30.7778Z" fill="#0E8F94"/>
<path d="M36.847 3.59262C36.1583 4.50389 35.6407 5.31044 35.261 5.97251L42.0281 12.7395C42.6902 12.3599 43.4967 11.8422 44.408 11.1536L45.5995 12.3451C46.1486 12.8942 47.039 12.8943 47.5882 12.3451C48.1374 11.7959 48.1374 10.9056 47.5882 10.3564L46.5728 9.34094C46.9043 9.03615 47.2427 8.71383 47.5886 8.36798C48.1371 7.81859 48.1371 6.92794 47.5886 6.37856L41.6222 0.412166C41.0728 -0.136284 40.1822 -0.136284 39.6328 0.412166C39.287 0.758018 38.9646 1.09637 38.6598 1.42788L37.6443 0.412353C37.0951 -0.136753 36.2048 -0.136847 35.6556 0.412353C35.1064 0.961554 35.1064 1.85192 35.6556 2.40112L36.847 3.59262Z" fill="#0E8F94"/>
</svg>
