<svg width="48" height="48" viewBox="0 0 48 48" fill="none" xmlns="http://www.w3.org/2000/svg">
<path d="M22.8022 21.8496L33.9808 10.671L37.3287 14.0193L26.1501 25.1979L22.8022 21.8496Z" fill="#0E8F94"/>
<path d="M48 3.34827L44.6517 0L42.33 2.32178L40.6252 0.616699L38.636 2.60559L40.3411 4.31067L38.9004 5.75134L37.1953 4.04626L35.2061 6.03552L36.9111 7.7406L35.9703 8.68176L39.3182 12.0297L40.2594 11.0889L41.9645 12.7939L43.9537 10.8047L42.2487 9.09961L43.6893 7.65894L45.3944 9.36401L47.3833 7.37476L45.6782 5.66968L48 3.34827Z" fill="#0E8F94"/>
<path d="M26.1505 29.176L23.4819 26.5074L17.1736 32.8158L18.2363 33.8789L16.2474 35.8682L15.1843 34.8051L6.06201 43.9274C9.04041 46.6304 11.9082 47.9919 14.6207 47.9919C15.2382 47.9919 15.8475 47.9213 16.4485 47.7803C22.105 46.4506 24.5582 39.3153 24.66 39.0121L24.949 38.1749L24.3081 37.5579C24.2367 37.4868 22.5613 35.803 23.5039 34.1766C23.7698 33.7181 24.0529 33.6002 24.2429 33.5511C24.9651 33.3647 25.9736 33.8302 26.2633 34.0038L26.8958 34.3931L27.574 34.0902C30.8812 32.6129 32.9547 30.5896 33.7366 28.077C34.4038 25.9318 34.0131 23.807 33.3011 22.0258L26.1505 29.176Z" fill="#0E8F94"/>
<path d="M12.1319 31.7531L14.1211 29.7638L15.1842 30.8269L21.4926 24.5182L18.824 21.8496L25.9611 14.7125C24.189 14.012 22.0818 13.633 19.9545 14.2951C17.4419 15.0769 15.4186 17.1504 13.9413 20.4577L13.6384 21.1359L14.0277 21.7683C14.1629 21.9884 14.6693 23.038 14.4818 23.7821C14.4335 23.974 14.3159 24.26 13.8552 24.5274C12.2282 25.4704 10.5447 23.7953 10.4795 23.7294L9.86757 23.0936L9.02858 23.3683C8.72426 23.4683 1.56447 25.8739 0.216812 31.5176C-0.556626 34.7567 0.741592 38.257 4.07411 41.9367L13.195 32.8158L12.1319 31.7531Z" fill="#0E8F94"/>
</svg>
