<svg width="48" height="48" viewBox="0 0 48 48" fill="none" xmlns="http://www.w3.org/2000/svg">
<path d="M31.9687 35.8125C29.6425 35.8125 27.75 37.7051 27.75 40.0313C27.75 40.0735 27.752 40.1151 27.7532 40.157H20.2468C20.248 40.1152 20.25 40.0735 20.25 40.0314C20.25 37.7052 18.3575 35.8125 16.0312 35.8125H7.03115C6.97546 35.8125 6.92024 35.8146 6.86512 35.8168V34.1104C6.86512 30.0704 9.41689 26.6147 12.9956 25.2639C13.6915 26.4505 14.5737 27.5149 15.6015 28.4173C15.5926 28.507 15.5917 28.5987 15.6006 28.6918C15.8012 30.7853 16.7686 32.7172 18.325 34.1316C19.8814 35.5461 21.8967 36.3251 23.9998 36.3251C26.1157 36.3251 28.1403 35.5378 29.7003 34.1083C31.2603 32.6787 32.2209 30.7305 32.4052 28.6225C32.4115 28.5508 32.4105 28.4803 32.4062 28.4106C33.4307 27.5097 34.3102 26.4475 35.0044 25.2638C38.5831 26.6146 41.1348 30.0704 41.1348 34.1103V35.8167C41.0796 35.8145 41.0244 35.8125 40.9687 35.8125H31.9687V35.8125Z" fill="#0E8F94"/>
<path d="M28.9429 30.5864C27.9896 32.3466 26.135 33.5126 23.9999 33.5126C21.8724 33.5126 20.0162 32.3458 19.0603 30.5876C20.5803 31.2293 22.2494 31.5845 24.0001 31.5845C25.752 31.5845 27.4222 31.2289 28.9429 30.5864Z" fill="#0E8F94"/>
<path d="M25.0785 11.0017C24.8118 10.6636 24.4049 10.4662 23.9742 10.4662C23.5435 10.4662 23.1367 10.6635 22.8699 11.0017C21.4319 12.8254 19.2771 13.8713 16.9581 13.8713C16.3696 13.8713 15.792 13.8027 15.2297 13.6704C16.3981 9.93609 19.8878 7.21875 23.9998 7.21875C28.1076 7.21875 31.5941 9.93047 32.7661 13.6589C32.1895 13.7985 31.5963 13.8713 30.9904 13.8713C28.6714 13.8713 26.5165 12.8254 25.0785 11.0017Z" fill="#0E8F94"/>
<path d="M14.8127 19.4248V16.4603C15.5133 16.6084 16.2302 16.6837 16.9584 16.6837C19.5955 16.6837 22.0777 15.6996 23.9746 13.9401C25.8714 15.6996 28.3536 16.6837 30.9907 16.6837C31.7377 16.6837 32.4715 16.6056 33.1875 16.4506V19.4248C33.1875 24.4942 29.0661 28.6183 24.0001 28.6183C18.9341 28.6184 14.8127 24.4943 14.8127 19.4248Z" fill="#0E8F94"/>
<path d="M30.5688 40.157C30.5651 40.1155 30.5624 40.0737 30.5624 40.0313C30.5624 39.2559 31.1933 38.625 31.9687 38.625H40.9688C41.7442 38.625 42.375 39.2558 42.375 40.0312C42.375 40.0737 42.3723 40.1154 42.3686 40.157H30.5688Z" fill="#0E8F94"/>
<path d="M16.0312 38.625C16.8067 38.625 17.4375 39.2558 17.4375 40.0312C17.4375 40.0737 17.4348 40.1154 17.4311 40.157H5.63137C5.62772 40.1155 5.625 40.0737 5.625 40.0313C5.625 39.2559 6.25584 38.625 7.03125 38.625H16.0312Z" fill="#0E8F94"/>
<path d="M1.40644 42.9695H46.5938C47.3704 42.9695 48 43.5991 48 44.3757V46.5938C48 47.3704 47.3704 48 46.5938 48H1.40654C0.629913 48 0.000286102 47.3704 0.000286102 46.5938V44.3757C0.00019455 43.5991 0.629818 42.9695 1.40644 42.9695Z" fill="#0E8F94"/>
<path d="M12.8755 11.912C12.3115 13.3026 12 14.8216 12 16.4124V19.425C12 20.6224 12.1769 21.7792 12.5046 22.8713C10.2484 22.7911 8.43727 20.9319 8.43727 18.6564V16.1251C8.43727 13.7989 10.3298 11.9064 12.656 11.9064C12.7296 11.9063 12.8028 11.9083 12.8755 11.912Z" fill="#0E8F94"/>
<path d="M33.3753 9.17475C33.179 8.91375 32.7959 8.12606 32.719 7.98591C31.0292 4.90556 27.7546 2.8125 24.0002 2.8125C20.1395 2.8125 16.7862 5.02575 15.1416 8.25C15.1141 8.30391 14.8241 8.91197 14.6254 9.17437C14.6254 9.17437 12.0593 9.11494 11.7681 9.15187C13.3249 3.86812 18.2189 0 24.0002 0C29.7815 0 34.6755 3.86812 36.2324 9.15187C35.9411 9.11494 33.3753 9.17475 33.3753 9.17475Z" fill="#0E8F94"/>
<path d="M35.4952 22.8711C35.8229 21.779 35.9999 20.6224 35.9999 19.4249V16.4122C35.9999 14.8215 35.6884 13.3024 35.1244 11.9118C35.197 11.9081 35.2702 11.9061 35.3437 11.9061C37.67 11.9061 39.5625 13.7987 39.5625 16.1249V18.6561C39.5625 20.9316 37.7514 22.791 35.4952 22.8711Z" fill="#0E8F94"/>
</svg>
