<svg width="15" height="16" viewBox="0 0 15 16" fill="none" xmlns="http://www.w3.org/2000/svg">
<path d="M14.3539 1.20473e-06H0.646215C0.404295 -0.000474686 0.18265 0.140071 0.0721317 0.363897C-0.0399105 0.590737 -0.020246 0.863897 0.122894 1.07107L5.14483 8.4329C5.1465 8.43544 5.14833 8.43782 5.15001 8.44036C5.33248 8.6967 5.43126 9.0073 5.43172 9.3263V15.3284C5.43065 15.506 5.49772 15.6769 5.61799 15.803C5.73842 15.9289 5.90214 16 6.07287 16C6.15961 15.9998 6.24558 15.9819 6.32577 15.9472L9.14771 14.8276C9.40045 14.7471 9.56828 14.4989 9.56828 14.2V9.3263C9.56874 9.0073 9.66752 8.6967 9.84984 8.44036C9.85152 8.43782 9.85334 8.43544 9.85502 8.4329L14.8771 1.07091C15.0202 0.863897 15.0399 0.590896 14.9279 0.364056C14.8175 0.140071 14.5957 -0.000474686 14.3539 1.20473e-06Z" fill="white"/>
</svg>
