<svg width="23" height="22" viewBox="0 0 23 22" fill="none" xmlns="http://www.w3.org/2000/svg">
<path d="M13.4239 11L21.6499 2.77361C21.8762 2.54716 22.0011 2.24504 22.0014 1.92289C22.0014 1.60056 21.8766 1.29808 21.6499 1.07199L20.9291 0.351307C20.7025 0.124317 20.4003 0 20.0778 0C19.7559 0 19.4537 0.124317 19.2271 0.351307L11.0011 8.57716L2.77468 0.351307C2.54841 0.124317 2.24611 0 1.92378 0C1.60181 0 1.29952 0.124317 1.07324 0.351307L0.352023 1.07199C-0.117341 1.54135 -0.117341 2.30478 0.352023 2.77361L8.57823 11L0.352023 19.226C0.125569 19.4528 0.000894367 19.755 0.000894367 20.0771C0.000894367 20.3993 0.125569 20.7014 0.352023 20.928L1.07306 21.6487C1.29934 21.8755 1.60181 22 1.9236 22C2.24593 22 2.54823 21.8755 2.77451 21.6487L11.0009 13.4227L19.2269 21.6487C19.4536 21.8755 19.7557 22 20.0776 22H20.078C20.4002 22 20.7023 21.8755 20.9289 21.6487L21.6498 20.928C21.876 20.7016 22.0009 20.3993 22.0009 20.0771C22.0009 19.755 21.876 19.4528 21.6498 19.2262L13.4239 11Z" fill="white"/>
</svg>
