<svg width="13" height="12" viewBox="0 0 13 12" fill="none" xmlns="http://www.w3.org/2000/svg">
<path d="M7.32237 6.0002L11.8094 1.51293C11.9329 1.3894 12.001 1.22461 12.0012 1.04888C12.0012 0.873061 11.9331 0.708069 11.8094 0.58474L11.4162 0.191628C11.2926 0.0678115 11.1278 0 10.9519 0C10.7763 0 10.6115 0.0678115 10.4879 0.191628L6.00078 4.6786L1.51351 0.191628C1.39009 0.0678115 1.22519 0 1.04937 0C0.873744 0 0.70885 0.0678115 0.585423 0.191628L0.192019 0.58474C-0.0640062 0.840765 -0.0640062 1.2572 0.192019 1.51293L4.67919 6.0002L0.192019 10.4873C0.0684945 10.611 0.000487852 10.7758 0.000487852 10.9515C0.000487852 11.1272 0.0684945 11.292 0.192019 11.4157L0.585325 11.8088C0.708752 11.9325 0.873744 12.0004 1.04927 12.0004C1.2251 12.0004 1.38999 11.9325 1.51342 11.8088L6.00068 7.32169L10.4878 11.8088C10.6114 11.9325 10.7762 12.0004 10.9518 12.0004H10.952C11.1277 12.0004 11.2925 11.9325 11.4161 11.8088L11.8093 11.4157C11.9328 11.2921 12.0009 11.1272 12.0009 10.9515C12.0009 10.7758 11.9328 10.611 11.8093 10.4874L7.32237 6.0002Z" fill="white"/>
</svg>
