<svg width="24" height="24" viewBox="0 0 24 24" fill="none" xmlns="http://www.w3.org/2000/svg">
<path d="M22.7931 8.65094L22.7933 8.65096C23.0904 8.67901 23.3593 8.89136 23.4607 9.21639C23.5629 9.54521 23.4656 9.89763 23.2281 10.1151L17.9912 14.907L17.7794 15.1007L17.8404 15.3812L19.3845 22.4776C19.3845 22.4777 19.3845 22.4779 19.3845 22.478C19.4578 22.817 19.3292 23.1568 19.0756 23.348L19.0752 23.3484C18.8255 23.5372 18.4992 23.5512 18.2372 23.3879C18.2372 23.3878 18.2371 23.3878 18.2371 23.3878L12.2642 19.6604L12 19.4955L11.7358 19.6603L5.76176 23.3878L5.76162 23.3879C5.6394 23.4642 5.50493 23.501 5.37186 23.501C5.21678 23.501 5.06085 23.4515 4.92537 23.3488L4.92438 23.348C4.67086 23.1568 4.54221 22.817 4.61548 22.478C4.61551 22.4779 4.61553 22.4777 4.61556 22.4776L6.1596 15.3812L6.22063 15.1007L6.00885 14.907L0.771808 10.115C0.771796 10.115 0.771785 10.115 0.771773 10.115C0.534391 9.89771 0.437281 9.5446 0.539108 9.21718C0.641377 8.89223 0.909928 8.67972 1.20724 8.65091C1.20738 8.6509 1.20752 8.65088 1.20766 8.65087L8.13606 7.9946L8.43652 7.96614L8.55084 7.68683L11.2889 0.997671L11.289 0.997438C11.4169 0.684519 11.7004 0.499032 12 0.499032C12.2993 0.499032 12.5832 0.684266 12.7125 0.998198C12.7125 0.998288 12.7126 0.998379 12.7126 0.998469L15.4503 7.68683L15.5646 7.96613L15.8651 7.9946L22.7931 8.65094Z" stroke="#D39A43" stroke-width="0.998064"/>
</svg>
