<svg width="26" height="26" viewBox="0 0 26 26" fill="none" xmlns="http://www.w3.org/2000/svg">
<path d="M13 0C5.83151 0 0 5.83151 0 13C0 20.1685 5.83151 26 13 26C20.1685 26 26 20.1685 26 13C26 5.83151 20.1685 0 13 0Z" fill="#0E8F94"/>
<path d="M19.5888 10.2453L12.5471 17.2868C12.3358 17.4981 12.0585 17.6044 11.7812 17.6044C11.5039 17.6044 11.2266 17.4981 11.0153 17.2868L7.49454 13.766C7.07083 13.3425 7.07083 12.6578 7.49454 12.2343C7.91804 11.8106 8.6026 11.8106 9.02631 12.2343L11.7812 14.9892L18.057 8.7135C18.4805 8.28979 19.1651 8.28979 19.5888 8.7135C20.0123 9.13701 20.0123 9.82156 19.5888 10.2453Z" fill="#18181B"/>
</svg>
