<svg width="38" height="26" viewBox="0 0 38 26" fill="none" xmlns="http://www.w3.org/2000/svg">
<path d="M38 7.05085V9.69491C38 10.0194 37.7164 10.2825 37.3667 10.2825H0.633333C0.283575 10.2825 0 10.0194 0 9.69491V7.05085C0 6.72636 0.283575 6.46328 0.633333 6.46328H37.3667C37.7164 6.46328 38 6.72636 38 7.05085ZM38 4.70056V2.93785C38 1.31535 36.5822 0 34.8333 0H3.16667C1.4178 0 0 1.31535 0 2.93785V4.70056C0 5.02505 0.283575 5.28814 0.633333 5.28814H37.3667C37.7164 5.28814 38 5.02505 38 4.70056ZM30.5113 16.3354C30.1159 16.4018 29.8879 16.7816 30.0296 17.1304C30.3124 17.8267 30.3127 18.6023 30.0293 19.2995C29.8904 19.6413 30.1049 20.0228 30.4917 20.0909C31.6928 20.3023 32.7934 19.5015 32.9205 18.4301C33.0729 17.1462 31.8514 16.1105 30.5113 16.3354ZM0.633333 11.4576H37.3667C37.7164 11.4576 38 11.7207 38 12.0452V23.0621C38 24.6846 36.5822 26 34.8333 26H3.16667C1.4178 26 0 24.6846 0 23.0621V12.0452C0 11.7207 0.283575 11.4576 0.633333 11.4576ZM11.7167 20.0508C11.7167 19.7264 11.4331 19.4633 11.0833 19.4633H5.77917C5.42941 19.4633 5.14583 19.7264 5.14583 20.0508C5.14583 20.3753 5.42941 20.6384 5.77917 20.6384H11.0833C11.4331 20.6384 11.7167 20.3753 11.7167 20.0508ZM11.7167 16.3785C11.7167 16.054 11.4331 15.791 11.0833 15.791H5.77917C5.42941 15.791 5.14583 16.054 5.14583 16.3785C5.14583 16.703 5.42941 16.9661 5.77917 16.9661H11.0833C11.4331 16.9661 11.7167 16.703 11.7167 16.3785ZM34.2 18.2147C34.2 15.6906 31.0905 14.2315 28.8958 15.7376C26.7151 14.234 23.5917 15.6821 23.5917 18.2147C23.5917 20.7461 26.7138 22.1962 28.8958 20.6917C31.0766 22.1953 34.2 20.7473 34.2 18.2147Z" fill="white"/>
</svg>
