<svg width="20" height="20" viewBox="0 0 20 20" fill="none" xmlns="http://www.w3.org/2000/svg">
<path d="M11.251 6.64941H9.15234V9.1782H11.251C11.9481 9.1782 12.5153 8.61099 12.5153 7.91383C12.5153 7.21667 11.9482 6.64941 11.251 6.64941Z" fill="#8B8B8B"/>
<path d="M17.0694 2.93051C13.1624 -0.976544 6.83816 -0.977131 2.93056 2.93051C-0.976539 6.83753 -0.977165 13.1618 2.93056 17.0694C6.83761 20.9765 13.1618 20.9771 17.0694 17.0694C20.9765 13.1624 20.9771 6.83812 17.0694 2.93051ZM11.2513 10.8212H9.15268V11.6815H10.8342C11.2877 11.6815 11.6554 12.0491 11.6554 12.5027C11.6554 12.9562 11.2877 13.3238 10.8342 13.3238H9.15268V14.1711C9.15268 14.6247 8.78502 14.9923 8.33148 14.9923C7.87795 14.9923 7.51029 14.6247 7.51029 14.1711V13.3238H6.66305C6.20951 13.3238 5.84185 12.9562 5.84185 12.5027C5.84185 12.0491 6.20951 11.6815 6.66305 11.6815H7.51029V10.8212H6.66305C6.20951 10.8212 5.84185 10.4535 5.84185 9.99996C5.84185 9.54642 6.20951 9.17876 6.66305 9.17876H7.51029V5.82879C7.51029 5.37525 7.87795 5.00759 8.33148 5.00759H11.2513C12.8541 5.00759 14.1581 6.31157 14.1581 7.91435C14.1581 9.51721 12.8541 10.8212 11.2513 10.8212Z" fill="#8B8B8B"/>
</svg>
