<svg width="28" height="28" viewBox="0 0 28 28" fill="none" xmlns="http://www.w3.org/2000/svg">
<path d="M27.9267 10.5796C27.7424 9.98798 27.2395 9.56911 26.6469 9.51316L18.5641 8.74742L15.3698 0.943402C15.1339 0.370049 14.5973 0 14 0C13.4027 0 12.8659 0.370049 12.6315 0.943402L9.43717 8.74742L1.35313 9.51316C0.760526 9.57022 0.258718 9.98909 0.0732908 10.5796C-0.111069 11.1712 0.0591914 11.8202 0.507379 12.2303L6.61731 17.821L4.81579 26.1007C4.68399 26.7095 4.91043 27.339 5.39451 27.7042C5.65471 27.9015 5.9604 28 6.26717 28C6.53079 28 6.79462 27.9269 7.03024 27.7798L14 23.431L20.9685 27.7798C21.4797 28.0985 22.1225 28.0693 22.6055 27.7042C23.0896 27.339 23.316 26.7095 23.1842 26.1007L21.3827 17.821L27.4927 12.2303C27.9406 11.8202 28.1111 11.1726 27.9267 10.5796Z" fill="#D39A43"/>
</svg>
